<?xml version="1.0" encoding="utf-8"?>
<!-- Generator: Adobe Illustrator 22.1.0, SVG Export Plug-In . SVG Version: 6.00 Build 0)  -->
<svg version="1.1" xmlns="http://www.w3.org/2000/svg" xmlns:xlink="http://www.w3.org/1999/xlink" x="0px" y="0px"
	 viewBox="0 0 360 216" style="enable-background:new 0 0 360 216;" xml:space="preserve">
<style type="text/css">
	.st0{fill:#FFFFFF;}
	.st1{fill-rule:evenodd;clip-rule:evenodd;}
	.st2{fill:none;stroke:#000000;stroke-width:0.9302;stroke-miterlimit:10;}
	.st3{fill:#1E56A7;}
	.st4{fill:#FEBE37;stroke:#1E56A7;stroke-miterlimit:10;}
	.st5{fill:none;stroke:#1E56A7;stroke-width:0.9366;stroke-miterlimit:10;}
</style>
<g id="Layer_1">
	<g>
		<path class="st4" d="M134.1,108.9c-4.5,0-8.1,1.6-10.7,4.8c-2.6,3.2-3.9,7.7-3.9,13.3c0,5.9,1.2,10.4,3.7,13.4s6.1,4.6,10.9,4.6
			c2,0,4-0.2,5.9-0.6c1.9-0.4,3.9-0.9,6-1.6v6.8c-3.8,1.4-8.1,2.1-12.9,2.1c-7.1,0-12.5-2.1-16.3-6.4c-3.8-4.3-5.7-10.4-5.7-18.4
			c0-5,0.9-9.4,2.8-13.2s4.5-6.7,8-8.7c3.5-2,7.6-3,12.3-3c4.9,0,9.5,1,13.7,3.1l-2.8,6.6c-1.6-0.8-3.4-1.4-5.2-2
			C138.1,109.2,136.1,108.9,134.1,108.9z"/>
	</g>
	<g>
		<path class="st3" d="M74.7,158.3v11.4c0,3.8-1.4,5.7-4.1,5.7c-1.4,0-2.4-0.5-3.1-1.5c-0.7-1-1.1-2.4-1.1-4.2v-11.4h1.1v11.5
			c0,1.5,0.3,2.6,0.8,3.3c0.5,0.8,1.3,1.1,2.2,1.1c1,0,1.7-0.4,2.2-1.1c0.5-0.8,0.7-1.9,0.7-3.4v-11.4H74.7z"/>
		<path class="st3" d="M84.4,159.1c-1.3,0-2.3,0.7-3,2c-0.7,1.3-1.1,3.2-1.1,5.6c0,1.5,0.2,2.9,0.5,4c0.3,1.1,0.8,2,1.5,2.6
			c0.6,0.6,1.4,0.9,2.2,0.9c0.9,0,1.6-0.2,2.3-0.5v1c-0.6,0.3-1.4,0.5-2.4,0.5c-1.1,0-2-0.3-2.8-1c-0.8-0.7-1.4-1.7-1.9-3
			c-0.4-1.3-0.7-2.9-0.7-4.7c0-2.7,0.5-4.8,1.4-6.3c1-1.5,2.3-2.3,3.9-2.3c1,0,1.9,0.2,2.7,0.7l-0.5,1
			C86,159.3,85.2,159.1,84.4,159.1z"/>
		<path class="st3" d="M103.2,170.7c0,1.4-0.4,2.5-1.2,3.4s-1.7,1.3-2.9,1.3c-1.3,0-2.4-0.2-3.2-0.6v-1.2c0.4,0.2,0.9,0.4,1.5,0.5
			c0.6,0.1,1.2,0.2,1.7,0.2c0.9,0,1.6-0.3,2.1-1c0.6-0.7,0.8-1.5,0.8-2.5c0-0.9-0.2-1.7-0.6-2.2c-0.4-0.5-1.1-1.1-2.2-1.6
			c-0.9-0.4-1.5-0.9-1.9-1.3c-0.4-0.4-0.7-0.9-1-1.4s-0.3-1.2-0.3-2c0-0.8,0.2-1.6,0.5-2.2c0.3-0.6,0.8-1.1,1.4-1.5s1.3-0.5,2-0.5
			c0.7,0,1.2,0.1,1.8,0.2c0.5,0.1,1,0.3,1.3,0.5l-0.4,1.1c-0.9-0.4-1.7-0.7-2.6-0.7c-0.8,0-1.5,0.3-2,0.8s-0.8,1.3-0.8,2.2
			c0,0.9,0.2,1.7,0.6,2.2c0.4,0.5,1.1,1.1,2.2,1.6c1.1,0.6,2,1.2,2.5,1.9C102.9,168.7,103.2,169.6,103.2,170.7z"/>
		<path class="st3" d="M113.8,175.1l-1.5-6.1h-4.1l-1.5,6.1h-1.2l4-16.8h1.2l4.1,16.8H113.8z M112.1,167.8l-1.5-6.3
			c-0.2-0.7-0.3-1.4-0.4-2c-0.1,0.7-0.2,1.3-0.3,2l-1.4,6.3H112.1z"/>
		<path class="st3" d="M127,175.1h-1.4l-6.4-15.1h-0.1c0.1,1,0.1,2,0.1,3v12.1h-1.1v-16.8h1.5l6.3,14.9h0.1
			c-0.1-1.3-0.1-2.3-0.1-3.2v-11.8h1.1V175.1z"/>
		<path class="st3" d="M134.9,175.1h-1.1v-15.7h-3.3v-1.1h7.8v1.1h-3.3V175.1z"/>
		<path class="st3" d="M148,175.1l-1.5-6.1h-4.1l-1.5,6.1h-1.2l4-16.8h1.2l4.1,16.8H148z M146.3,167.8l-1.5-6.3
			c-0.2-0.7-0.3-1.4-0.4-2c-0.1,0.7-0.2,1.3-0.3,2l-1.4,6.3H146.3z"/>
		<path class="st3" d="M158.2,158.3h3.2c1.3,0,2.3,0.3,3,1c0.7,0.7,1.1,1.7,1.1,3c0,2.3-0.8,3.6-2.5,3.9v0.1c1,0.2,1.7,0.6,2.1,1.3
			c0.5,0.7,0.7,1.6,0.7,2.7c0,1.5-0.3,2.7-1,3.5c-0.7,0.8-1.6,1.3-2.8,1.3h-3.9V158.3z M159.4,165.7h2.1c1,0,1.8-0.3,2.2-0.9
			c0.4-0.6,0.7-1.5,0.7-2.6c0-1-0.2-1.7-0.7-2.2c-0.5-0.5-1.2-0.8-2.2-0.8h-2.1V165.7z M159.4,166.8v7.3h2.6c1.9,0,2.8-1.3,2.8-3.8
			c0-1.1-0.3-2-0.8-2.6c-0.5-0.6-1.3-0.9-2.3-0.9H159.4z"/>
		<path class="st3" d="M176.4,175.1l-1.5-6.1h-4.1l-1.5,6.1h-1.2l4-16.8h1.2l4.1,16.8H176.4z M174.7,167.8l-1.5-6.3
			c-0.2-0.7-0.3-1.4-0.4-2c-0.1,0.7-0.2,1.3-0.3,2l-1.4,6.3H174.7z"/>
		<path class="st3" d="M181.9,167.7v7.3h-1.1v-16.8h2.3c1.6,0,2.8,0.4,3.6,1.2c0.8,0.8,1.1,1.9,1.1,3.5c0,1.2-0.2,2.1-0.6,2.9
			s-1.1,1.3-2.1,1.7l3.3,7.6h-1.3l-3.1-7.3H181.9z M181.9,166.7h1.6c1,0,1.8-0.3,2.4-0.9c0.6-0.6,0.8-1.6,0.8-2.8
			c0-1.3-0.3-2.2-0.8-2.7c-0.6-0.6-1.5-0.8-2.7-0.8h-1.3V166.7z"/>
		<path class="st3" d="M192.2,158.3h3.2c1.3,0,2.3,0.3,3,1c0.7,0.7,1.1,1.7,1.1,3c0,2.3-0.8,3.6-2.5,3.9v0.1c1,0.2,1.7,0.6,2.1,1.3
			c0.5,0.7,0.7,1.6,0.7,2.7c0,1.5-0.3,2.7-1,3.5c-0.7,0.8-1.6,1.3-2.8,1.3h-3.9V158.3z M193.3,165.7h2.1c1,0,1.8-0.3,2.2-0.9
			c0.4-0.6,0.7-1.5,0.7-2.6c0-1-0.2-1.7-0.7-2.2c-0.5-0.5-1.2-0.8-2.2-0.8h-2.1V165.7z M193.3,166.8v7.3h2.6c1.9,0,2.8-1.3,2.8-3.8
			c0-1.1-0.3-2-0.8-2.6c-0.5-0.6-1.3-0.9-2.3-0.9H193.3z"/>
		<path class="st3" d="M210.4,175.1l-1.5-6.1h-4.1l-1.5,6.1h-1.2l4-16.8h1.2l4.1,16.8H210.4z M208.6,167.8l-1.5-6.3
			c-0.2-0.7-0.3-1.4-0.4-2c-0.1,0.7-0.2,1.3-0.3,2l-1.4,6.3H208.6z"/>
		<path class="st3" d="M215.9,167.7v7.3h-1.1v-16.8h2.3c1.6,0,2.8,0.4,3.6,1.2c0.8,0.8,1.1,1.9,1.1,3.5c0,1.2-0.2,2.1-0.6,2.9
			s-1.1,1.3-2.1,1.7l3.3,7.6h-1.3l-3.1-7.3H215.9z M215.9,166.7h1.6c1,0,1.8-0.3,2.4-0.9c0.6-0.6,0.8-1.6,0.8-2.8
			c0-1.3-0.3-2.2-0.8-2.7c-0.6-0.6-1.5-0.8-2.7-0.8h-1.3V166.7z"/>
		<path class="st3" d="M232.5,175.1L231,169H227l-1.5,6.1h-1.2l4-16.8h1.2l4.1,16.8H232.5z M230.8,167.8l-1.5-6.3
			c-0.2-0.7-0.3-1.4-0.4-2c-0.1,0.7-0.2,1.3-0.3,2l-1.4,6.3H230.8z"/>
		<path class="st3" d="M250.7,175.1h-9v-2.3l3-4.2c0.8-1.2,1.4-2,1.7-2.6c0.3-0.6,0.5-1.1,0.7-1.6s0.2-1.1,0.2-1.6
			c0-0.6-0.1-1.1-0.4-1.4c-0.3-0.3-0.7-0.5-1.1-0.5c-0.4,0-0.8,0.1-1.1,0.3c-0.4,0.2-0.8,0.6-1.3,1.2l-1.7-1.8
			c0.8-0.9,1.6-1.5,2.2-1.9s1.4-0.5,2.2-0.5c1.4,0,2.4,0.4,3.2,1.2c0.8,0.8,1.1,1.9,1.1,3.3c0,0.6-0.1,1.3-0.2,1.8s-0.3,1.2-0.6,1.7
			c-0.3,0.6-0.6,1.2-1.1,1.8c-0.4,0.6-1.5,2.1-3.3,4.3v0.1h5.5V175.1z"/>
		<path class="st3" d="M263.2,166.7c0,3-0.4,5.2-1.1,6.6c-0.7,1.4-1.9,2-3.5,2c-1.6,0-2.8-0.7-3.5-2c-0.7-1.4-1.1-3.6-1.1-6.6
			c0-3,0.4-5.2,1.1-6.6c0.7-1.4,1.9-2.1,3.5-2.1c1.6,0,2.8,0.7,3.5,2S263.2,163.6,263.2,166.7z M257.1,166.7c0,2.4,0.1,3.9,0.3,4.8
			c0.2,0.8,0.6,1.2,1.2,1.2c0.4,0,0.7-0.2,0.9-0.5c0.2-0.4,0.4-0.9,0.5-1.8c0.1-0.8,0.1-2,0.1-3.7c0-2.3-0.1-3.9-0.3-4.7
			c-0.2-0.8-0.6-1.3-1.2-1.3c-0.6,0-1,0.4-1.2,1.3C257.2,162.8,257.1,164.3,257.1,166.7z"/>
		<path class="st3" d="M273.8,175.1h-3.1v-9.9c0-1.1,0.1-2.3,0.2-3.7c-0.1,0.1-0.3,0.3-0.6,0.7c-0.3,0.4-1,1.1-2,2.1l-1.7-1.9
			l4.5-4.1h2.8V175.1z"/>
		<path class="st3" d="M287.7,165.6c0,6.5-2.2,9.7-6.5,9.7c-0.7,0-1.3-0.1-1.8-0.2v-2.6c0.5,0.2,1,0.3,1.5,0.3
			c1.3,0,2.3-0.4,2.9-1.3c0.7-0.9,1-2.3,1.1-4.2h-0.1c-0.2,0.6-0.6,1.1-1.1,1.4c-0.5,0.3-1,0.5-1.6,0.5c-1.1,0-2-0.5-2.7-1.4
			c-0.6-0.9-0.9-2.2-0.9-3.9c0-1.8,0.4-3.2,1.2-4.3c0.8-1.1,1.9-1.6,3.3-1.6c1.5,0,2.7,0.6,3.5,1.9
			C287.3,161.3,287.7,163.1,287.7,165.6z M283.1,160.7c-0.5,0-0.8,0.2-1.1,0.7c-0.3,0.5-0.4,1.3-0.4,2.4c0,0.9,0.1,1.6,0.4,2.1
			c0.2,0.5,0.6,0.7,1.1,0.7c0.4,0,0.8-0.3,1.1-0.8c0.3-0.5,0.5-1.1,0.5-1.7c0-1-0.1-1.8-0.4-2.5C283.9,161,283.6,160.7,283.1,160.7z
			"/>
	</g>
	<g>
		<path class="st3" d="M176.2,151.1h-5.6v-43.3h-15.3v-5h36.2v5h-15.3V151.1z"/>
		<path class="st3" d="M204.3,151.7c-5.4,0-9.6-1.6-12.7-4.9c-3.1-3.3-4.6-7.8-4.6-13.6c0-5.8,1.4-10.5,4.3-13.9s6.7-5.2,11.6-5.2
			c4.5,0,8.1,1.5,10.8,4.5c2.6,3,4,6.9,4,11.8v3.5h-24.9c0.1,4.3,1.2,7.5,3.2,9.7s4.9,3.3,8.6,3.3c3.9,0,7.8-0.8,11.6-2.4v4.9
			c-1.9,0.8-3.8,1.4-5.5,1.8S206.8,151.7,204.3,151.7z M202.9,118.8c-2.9,0-5.2,0.9-7,2.8c-1.7,1.9-2.7,4.5-3.1,7.9h18.9
			c0-3.5-0.8-6.1-2.3-7.9C207.9,119.7,205.7,118.8,202.9,118.8z"/>
		<path class="st3" d="M240.1,151.7c-5.2,0-9.3-1.6-12.2-4.8s-4.3-7.8-4.3-13.7c0-6.1,1.5-10.7,4.4-14c2.9-3.3,7.1-5,12.5-5
			c1.7,0,3.5,0.2,5.2,0.6s3.1,0.8,4.1,1.3l-1.7,4.7c-1.2-0.5-2.5-0.9-4-1.2c-1.4-0.3-2.7-0.5-3.8-0.5c-7.4,0-11,4.7-11,14.1
			c0,4.4,0.9,7.9,2.7,10.2c1.8,2.4,4.5,3.6,8,3.6c3,0,6.1-0.7,9.3-1.9v4.9C246.9,151.1,243.8,151.7,240.1,151.7z"/>
		<path class="st3" d="M281.6,151.1v-23.4c0-3-0.7-5.2-2-6.6c-1.3-1.5-3.4-2.2-6.3-2.2c-3.8,0-6.6,1-8.3,3.1
			c-1.8,2.1-2.6,5.5-2.6,10.2v18.9h-5.5V99.7h5.5v15.6c0,1.9-0.1,3.4-0.3,4.7h0.3c1.1-1.7,2.6-3.1,4.6-4.1c2-1,4.3-1.5,6.8-1.5
			c4.4,0,7.7,1.1,10,3.2c2.2,2.1,3.3,5.4,3.3,10v23.6H281.6z"/>
	</g>
	<g>
		<path class="st4" d="M103.8,102.5v31.5c0,3.6-0.8,6.7-2.3,9.4c-1.5,2.7-3.8,4.8-6.7,6.2c-2.9,1.5-6.4,2.2-10.5,2.2
			c-6,0-10.7-1.6-14.1-4.8c-3.3-3.2-5-7.6-5-13.2v-31.3h8v30.8c0,4,0.9,7,2.8,8.9c1.9,1.9,4.7,2.9,8.6,2.9c7.5,0,11.2-3.9,11.2-11.8
			v-30.7H103.8z"/>
		<g>
			<path class="st3" d="M83.1,49.8c0-0.8-0.7-1.5-1.5-1.5c-0.8,0-1.5,0.7-1.5,1.5c0,0.7,0.5,1.3,1.2,1.5c0,5.6,0,25.6,0,29.7
				c0,4.4,0,7.8,0,12.2c0,0.6,0,1.2-0.1,1.8c-0.7,0.2-1.1,0.7-1.1,1.4c0,0.8,0.7,1.5,1.5,1.5c0.8,0,1.5-0.7,1.5-1.5
				c0-0.6-0.4-1.2-0.9-1.4c-0.1-0.6-0.1-1.2-0.1-1.9c0-8.6,0-32.8,0-42C82.7,51,83.1,50.4,83.1,49.8z"/>
			<path class="st3" d="M93.8,47.4c-0.7,0-1.3,0.6-1.3,1.3c0,0.1,0,0.3,0.1,0.4l-4.7,5.3c0-2,0-3.7,0-5c0.6-0.2,1-0.7,1-1.4
				c0-0.8-0.7-1.5-1.5-1.5c-0.8,0-1.5,0.7-1.5,1.5c0,0.7,0.5,1.3,1.2,1.5c0,5.6,0,27.1,0,31.2c0,4.4,0,7.8,0,12.2
				c0,0.7,0,1.5-0.1,2.1c-0.6,0.2-1.1,0.7-1.1,1.4c0,0.8,0.7,1.5,1.5,1.5c0.8,0,1.5-0.7,1.5-1.5c0-0.6-0.4-1.1-0.9-1.4
				c-0.2-0.7-0.1-1.4-0.1-2.2c0-7.1,0-25.7,0-37.2l0.1,0l5.2-5.9c0.2,0.1,0.4,0.2,0.6,0.2c0.7,0,1.3-0.6,1.3-1.3
				C95.1,48,94.6,47.4,93.8,47.4z"/>
			<path class="st3" d="M85.1,91.5C85.1,91.5,85.1,91.5,85.1,91.5c0-13,0-33.7,0-46.6c0-0.1,0-0.2,0-0.3h2.6l0-3.5
				c1.1-0.3,1.9-1.3,1.9-2.4c0-1.4-1.1-2.5-2.5-2.5c-1.4,0-2.5,1.1-2.5,2.5c0,1.3,1,2.3,2.2,2.5v2.5h-1.9l0,0l-5.1-5.1l8.9-8.9
				c0.2,0.1,0.4,0.2,0.6,0.2c0.8,0,1.5-0.7,1.5-1.5c0-0.8-0.7-1.5-1.5-1.5c-0.8,0-1.5,0.7-1.5,1.5c0,0.2,0.1,0.5,0.2,0.7l-8.9,8.9
				l-3.4-3.4c0.1-0.2,0.2-0.4,0.2-0.6c0-0.8-0.7-1.5-1.5-1.5c-0.8,0-1.5,0.7-1.5,1.5c0,0.8,0.7,1.5,1.5,1.5c0.2,0,0.5-0.1,0.7-0.2
				l9.2,9.2l0,0v0.3h0c0,0.1,0,0.2,0,0.3c0,12.8,0,33.5,0,46.3c0,0.1,0,0.2,0,0.3c-0.6,0.2-1.1,0.7-1.1,1.4c0,0.8,0.7,1.5,1.5,1.5
				c0.8,0,1.5-0.7,1.5-1.5C86.1,92.3,85.7,91.7,85.1,91.5z"/>
		</g>
		<path class="st3" d="M99.5,83.6c-1.4-1.4-3.3-2.7-6.7-3.3V59.2h-2.5v20.9c0,0,0,0,0,0v7.9c0,0,0,0,0,0v0h0
			c4.6,1.1,5.2,5.2,5.6,9.7v0.1h8v-0.6C103.9,92.1,102.6,86.7,99.5,83.6z"/>
		<path class="st3" d="M76.4,59.2v21.2c-3.3,0.6-5.3,1.9-6.7,3.3c-3.1,3.1-4.4,8.5-4.4,13.5v0.6h8v-0.1c0.4-4.5,1-8.6,5.6-9.7h0v0
			v-7.9V59.2H76.4z"/>
		<g>
			<path class="st3" d="M91.2,103.7c0,0.7-0.5,1.2-1.2,1.2c-0.7,0-1.2-0.5-1.2-1.2c0-0.7,0.5-1.2,1.2-1.2
				C90.7,102.5,91.2,103,91.2,103.7z"/>
			<path class="st3" d="M80.6,129.7c0,0.9-0.7,1.6-1.6,1.6c-0.9,0-1.6-0.7-1.6-1.6c0-0.9,0.7-1.6,1.6-1.6
				C79.9,128.2,80.6,128.9,80.6,129.7z"/>
			<path class="st3" d="M80.6,133.8c0,0.9-0.7,1.6-1.6,1.6c-0.9,0-1.6-0.7-1.6-1.6c0-0.9,0.7-1.6,1.6-1.6
				C79.9,132.3,80.6,133,80.6,133.8z"/>
			<path class="st3" d="M80.6,137.9c0,0.9-0.7,1.6-1.6,1.6c-0.9,0-1.6-0.7-1.6-1.6c0-0.9,0.7-1.6,1.6-1.6
				C79.9,136.3,80.6,137,80.6,137.9z"/>
			<rect x="81.7" y="137" class="st3" width="4.5" height="4.5"/>
			<rect x="81.7" y="131" class="st3" width="4.5" height="4.5"/>
			<rect x="81.7" y="112.8" class="st3" width="4.5" height="3.1"/>
			<path class="st3" d="M84.2,103.8c0,0.8-0.6,1.4-1.4,1.4c-0.8,0-1.4-0.6-1.4-1.4c0-0.8,0.6-1.4,1.4-1.4
				C83.6,102.5,84.2,103.1,84.2,103.8z"/>
			<path class="st3" d="M84.2,107.2c0,0.8-0.6,1.4-1.4,1.4c-0.8,0-1.4-0.6-1.4-1.4c0-0.8,0.6-1.4,1.4-1.4
				C83.6,105.8,84.2,106.5,84.2,107.2z"/>
			<path class="st3" d="M87.5,103.8c0,0.8-0.6,1.4-1.4,1.4c-0.8,0-1.4-0.6-1.4-1.4c0-0.8,0.6-1.4,1.4-1.4
				C86.9,102.5,87.5,103.1,87.5,103.8z"/>
			<path class="st3" d="M87.5,107.2c0,0.8-0.6,1.4-1.4,1.4c-0.8,0-1.4-0.6-1.4-1.4c0-0.8,0.6-1.4,1.4-1.4
				C86.9,105.8,87.5,106.5,87.5,107.2z"/>
			<g>
				<g>
					<rect x="82.9" y="121.7" class="st3" width="1.7" height="1.6"/>
					<rect x="82.9" y="119.5" class="st3" width="1.7" height="1.6"/>
					<rect x="82.9" y="117.2" class="st3" width="1.7" height="1.6"/>
				</g>
				<g>
					<rect x="80.7" y="121.7" class="st3" width="1.7" height="1.6"/>
					<rect x="80.7" y="119.5" class="st3" width="1.7" height="1.6"/>
					<rect x="80.7" y="117.2" class="st3" width="1.7" height="1.6"/>
				</g>
				<path class="st3" d="M86.9,118c0,0.5-0.4,0.9-0.9,0.9c-0.5,0-0.9-0.4-0.9-0.9c0-0.5,0.4-0.9,0.9-0.9
					C86.5,117.1,86.9,117.5,86.9,118z"/>
				<path class="st3" d="M86.9,120.3c0,0.5-0.4,0.9-0.9,0.9c-0.5,0-0.9-0.4-0.9-0.9c0-0.5,0.4-0.9,0.9-0.9
					C86.5,119.4,86.9,119.8,86.9,120.3z"/>
				<path class="st3" d="M86.9,122.6c0,0.5-0.4,0.9-0.9,0.9c-0.5,0-0.9-0.4-0.9-0.9c0-0.5,0.4-0.9,0.9-0.9
					C86.5,121.7,86.9,122.1,86.9,122.6z"/>
			</g>
			<polygon class="st3" points="87,103.8 86.6,104.2 91.1,110.7 91.1,132.6 87.7,138.9 86,138.9 86,139.6 88,139.5 91.7,132.9 
				91.7,110.4 			"/>
			<rect x="81.7" y="125" class="st3" width="4.5" height="4.5"/>
			<polygon class="st3" points="85.6,114 85.6,114.6 88.1,114.6 88.1,124.9 87.3,126.9 86.1,126.9 86.1,127.6 87.7,127.6 
				87.9,127.6 88.7,125.2 88.7,114.6 88.7,114.1 88.7,114 			"/>
			<polygon class="st3" points="87.1,107.4 86.6,107.7 89.7,112.2 89.7,127.6 87,132.9 85.5,132.9 85.5,133.6 86.7,133.6 
				87.3,133.6 87.3,133.6 87.3,133.6 90.3,127.9 90.3,111.9 			"/>
			<polygon class="st3" points="81.9,107.4 82.3,107.7 79.2,112.2 79.2,129.9 78.7,129.8 78.7,111.9 			"/>
			<g>
				<rect x="77.8" y="105.5" class="st3" width="2.1" height="2"/>
				<rect x="77.8" y="102.7" class="st3" width="2.1" height="2"/>
			</g>
		</g>
	</g>
</g>
<g id="Layer_2">
</g>
</svg>
